<svg width="1124" height="923" viewBox="0 0 1124 923" fill="none" xmlns="http://www.w3.org/2000/svg">
<path id="HAIR-NO-MOVEMENT" d="M738.362 184.495C738.199 184.525 737.956 184.569 737.66 184.621C731.879 185.642 696.925 191.398 661.685 177.07C646.756 171.001 681.481 181.602 648.232 160.5C609.25 135.76 638.403 123.036 635.5 111.5C629.704 88.4646 600.014 72.1158 620.5 74.5C625.894 75.1277 623.522 59.4785 632.506 57.1513C634.48 56.6401 643.12 54.402 647.333 46.7682C651.09 39.9583 678.989 36.0851 680.5 30.5C704.081 30.5 686.452 7.48471 715.442 12.654C732.116 15.6271 745.085 23.744 770.342 39.8566C814.303 67.9008 836.284 81.923 841.224 103.406C845.906 123.769 834.668 132.543 842.841 154.34C850.452 174.636 842.868 171.083 847.028 187.501C853.721 213.922 848.549 245.117 838.2 257.196C826.853 270.439 816.002 277.708 801.596 287.357C783.513 299.469 781.212 453.117 770.342 452.501C750.635 451.384 618.264 337.407 617.5 320C617.5 326 615 257 635.704 180.773C639.994 172.158 730.028 181.36 731.137 176.411" fill="url(#paint0_linear_0_1)"/>
<g id="NECK">
<path id="Vector" d="M776.347 229.935L836.752 326.102L663.36 363.527L674.404 243.13L776.347 229.935Z" fill="#FFB6B6"/>
<path id="NECK_2" opacity="0.1" d="M776.347 229.935L836.752 326.102L663.36 363.527L674.404 243.13L776.347 229.935Z" fill="black"/>
</g>
<path id="SHIRTBODY" d="M668 314L672 271L805.314 278L804.314 314L879.5 382L912.314 674L1001.93 829.266L547.994 762L581.154 642L581.154 327.488L625 314H668Z" fill="#38A5D2"/>
<g id="TABLE">
<path id="TABLE_2" d="M5.03646 907.032C-0.934059 896.987 -1.63916 884.576 3.15068 873.833L74.3285 714.213C79.6407 702.3 91.0605 694.602 103.422 694.602H1002.45C1014.47 694.602 1025.4 701.658 1030.98 713.017L1107.28 868.238C1112.55 878.968 1112.2 891.57 1106.35 901.95C1100.49 912.33 1090.22 918.555 1078.87 918.603L32.3703 923H32.2393C21.1454 923 10.9828 917.038 5.03646 907.032Z" fill="white"/>
<path id="Vector_2" d="M5.03646 907.032C-0.934059 896.987 -1.63916 884.576 3.15068 873.833L74.3285 714.213C79.6407 702.3 91.0605 694.602 103.422 694.602H1002.45C1014.47 694.602 1025.4 701.658 1030.98 713.017L1107.28 868.238C1112.55 878.968 1112.2 891.57 1106.35 901.95C1100.49 912.33 1090.22 918.555 1078.87 918.603L32.3703 923H32.2393C21.1454 923 10.9828 917.038 5.03646 907.032ZM103.422 698.212C92.3579 698.212 82.1369 705.102 77.3823 715.764L6.20447 875.384C1.91717 884.999 2.54797 896.107 7.8921 905.099C13.2148 914.055 22.3095 919.391 32.2398 919.391H32.3571L1078.86 914.994C1089.02 914.951 1098.21 909.379 1103.45 900.088C1108.69 890.798 1109 879.518 1104.28 869.916L1027.99 714.692C1022.99 704.527 1013.21 698.212 1002.45 698.212H103.422Z" fill="#3F3D56"/>
</g>
<g id="TABLET">
<path id="Vector_3" d="M918.751 861.978L547.745 834.754C542.268 834.352 537.899 830.41 536.616 824.713C535.333 819.015 537.546 813.385 542.254 810.371L624.294 757.832C626.377 756.497 628.766 755.849 631.189 755.974L952.106 771.543C956.349 771.747 960.138 774.221 962.243 778.158C964.348 782.095 964.415 786.835 962.422 790.838L930.471 855.032C928.326 859.34 924.122 862.01 919.596 862.01C919.315 862.01 919.033 861.999 918.751 861.978Z" fill="#3F3D56"/>
<path id="Vector_4" d="M544.528 818.87L914.009 845.9L943.23 778.673L626.416 765.412L544.528 818.87Z" fill="white"/>
<path id="LINEPAINT" d="M826.649 790.16C833.773 790.756 838.923 797.805 839.011 805.216C839.102 812.908 833.81 819.771 827.653 823.177C820.439 827.167 811.628 827.491 803.735 826.427C796.635 825.47 788.979 822.784 784.653 816.313C781.012 810.869 779.922 802.825 783.452 796.961C786.952 791.148 793.94 789.791 799.63 792.417C805.652 795.197 809.258 801.302 809.006 808.331C808.727 816.122 804.215 823.145 798.122 827.207C791.551 831.589 783.46 832.751 775.868 832.419C767.595 832.056 759.434 829.862 751.965 826.106C744.967 822.587 738.034 817.643 733.197 811.114C728.661 804.994 726.139 796.657 729.11 789.084C731.547 782.873 737.205 779.238 743.479 780.032C749.224 780.758 754.907 784.57 757.231 790.361C759.853 796.894 758.238 804.537 754.327 810.12C749.812 816.566 742.952 820.01 735.484 820.24C727.535 820.485 719.811 817.154 713.484 812.239C707.625 807.687 702.548 801.96 696.214 798.113C693.166 796.262 689.818 795.026 686.286 794.885C681.789 794.705 681.496 807.08 677.085 807.814C673.347 808.436 665.413 797.752 661.808 796.337C658.723 795.126 655.024 806.902 652.941 810.82C646.43 823.061 644.614 817.177 645.802 814.028C646.734 811.558 655.282 790.499 660.321 789.656C665.36 788.814 666.235 791.852 666.235 791.852C668.642 794.156 672.466 800.966 675.896 800.258C679.471 799.521 683.381 790.513 687.036 790.76C699.984 791.636 708.064 803.816 718.249 810.664C728.958 817.863 745.029 818.999 752.311 805.872C754.956 801.105 755.728 794.654 752.559 789.967C749.919 786.062 745.044 783.59 740.511 784.138C734.817 784.827 731.763 790.459 731.732 796.183C731.695 803.188 736.027 809.059 740.726 813.45C751.184 823.223 765.368 828.568 779.272 828.307C785.795 828.185 792.786 826.662 798.032 822.247C802.565 818.432 805.815 812.058 805.022 805.79C804.337 800.366 800.273 796.106 795.181 795.352C789.972 794.581 785.72 798.377 785.256 803.945C784.734 810.207 788.011 815.588 792.953 818.654C798.552 822.128 805.482 822.816 811.85 822.726C818.61 822.63 825.717 821.023 830.663 815.736C834.882 811.227 836.695 804.352 833.209 798.789C831.67 796.333 829.277 794.549 826.477 794.315C823.985 794.106 824.144 789.95 826.649 790.16Z" fill="#38A5D2"/>
</g>
<g id="HANDPENCIL">
<path id="Vector_5" d="M673.141 780.791L674.713 767.626L777.794 539.406C779.502 535.626 783.779 534.045 787.328 535.883C790.878 537.72 792.376 542.292 790.669 546.071L687.633 774.191L678.924 783.785C677.893 784.915 676.365 785.199 675.03 784.508C673.696 783.817 672.955 782.358 673.141 780.791Z" fill="#3F3D56"/>
<path id="Vector_6" d="M746.119 640.978C758.738 642.258 770.924 646.739 781.658 654.044L782.229 654.118L782.284 653.513L903.797 661.85L878.595 492.955L964.049 431.153L970.589 720.158C967.736 738.934 950.962 751.371 933.366 747.759L776.61 715.863L776.796 713.827L776.249 713.726C764.426 718.413 751.686 719.998 739.096 718.349C707.558 714.688 683.561 694.394 685.498 673.026C687.435 651.658 714.569 637.31 746.119 640.978Z" fill="#FFB6B6"/>
</g>
<path id="SHIRT" d="M795.279 370.64L845 327C845 327 945.657 340 963.555 410.098C964.914 415.422 994.602 667.1 993.067 673.897C981.694 724.25 881.457 656.824 881.457 656.824L795.279 370.64Z" fill="#38A5D2"/>
<path id="HAND-L" d="M259.804 517.356C271.551 522.377 282.001 530.328 290.279 540.543L290.806 540.786L291.025 540.224L405.242 584.75L527.194 374L594.612 418.596L453.212 660.607C445.301 677.706 425.788 684.556 409.911 675.808L268.397 598.15L269.136 596.258L268.639 595.997C256.011 596.923 243.358 594.608 231.74 589.243C202.509 576.254 185.093 549.627 192.841 529.773C200.589 509.919 230.563 504.358 259.804 517.356Z" fill="#FFB6B6"/>
<path id="SHIRT-L" d="M655.283 407.573L601.343 321.481C601.343 321.481 537.155 335.041 510.714 371.701C507.409 376.283 393.878 552.022 393.147 559.691C388.027 613.377 518.509 638.531 518.509 638.531L655.283 407.573Z" fill="#38A5D2"/>
<g id="COMPUTER">
<path id="Vector_7" d="M378.965 827.832L368.329 818.102C366.746 816.653 364.82 815.693 362.761 815.326L125.77 773.168C120.361 772.206 116.365 768.037 115.342 762.286C114.319 756.536 116.604 751.093 121.307 748.081L205.854 693.938C208.68 692.128 212.006 691.559 215.222 692.334L515.708 764.792C521.549 766.2 525.448 771.238 525.639 777.627C525.831 784.016 522.242 789.31 516.495 791.115L390.858 830.554C389.666 830.929 388.45 831.112 387.245 831.112C384.246 831.112 381.311 829.979 378.965 827.832Z" fill="#3F3D56"/>
<path id="Vector_8" d="M373.095 830.419L101.431 790.343C92.3386 789.003 84.8343 782.049 82.3117 772.629L19.9176 539.549C17.8034 531.649 19.3818 523.469 24.2481 517.104C29.1144 510.739 36.3042 507.45 43.9816 508.075L317.684 530.456C327.585 531.266 335.898 538.708 338.369 548.974L398.725 799.75C400.651 807.752 398.725 816.211 393.572 822.377C389.135 827.687 382.843 830.653 376.284 830.653C375.227 830.653 374.161 830.576 373.095 830.419Z" fill="#3F3D56"/>
</g>
<g id="PLANT-R">
<path id="Vector_33" d="M1123.52 739.428C1124.98 789.324 1095.83 807.609 1059.24 808.677C1058.39 808.702 1057.54 808.718 1056.7 808.723C1055.01 808.737 1053.32 808.709 1051.66 808.638C1018.57 807.266 992.379 789.7 991.024 743.298C989.622 695.277 1049.23 632.883 1053.7 628.269L1053.71 628.264C1053.88 628.087 1053.96 628 1053.96 628C1053.96 628 1122.07 689.538 1123.52 739.428Z" fill="#D0CDE1"/>
<path id="Vector_34" d="M1056.61 801.116L1079.85 766.555L1056.65 804.834L1056.7 808.723C1055.01 808.737 1053.32 808.709 1051.66 808.638L1052.81 758.646L1052.78 758.26L1052.82 758.187L1052.93 753.463L1027.48 716.509L1052.9 749.927L1053 750.925L1053.87 713.155L1031.88 674.842L1053.93 706.519L1053.7 628.269V628.008L1053.71 628.264L1055.16 689.936L1075.2 664.885L1055.23 695.249L1055.67 729.034L1074.1 696.061L1055.74 734.002L1055.98 752.787L1082.79 706.857L1056.06 759.341L1056.61 801.116Z" fill="#3F3D56"/>
</g>
<g id="PLANT-L">
<path id="Vector_33_2" d="M20.0127 742.239C20.6885 792.151 50.5979 809.174 87.1969 808.678C88.0468 808.667 88.8931 808.646 89.7343 808.615C91.4293 808.557 93.1069 808.457 94.7671 808.316C127.767 805.531 153.185 786.862 152.556 740.445C151.906 692.407 89.6913 632.617 85.0256 628.197L85.0176 628.193C84.84 628.024 84.7489 627.94 84.7489 627.94C84.7489 627.94 19.3371 692.331 20.0127 742.239Z" fill="#D0CDE1"/>
<path id="Vector_34_2" d="M89.5044 801.011L64.8084 767.474L89.6164 804.728L89.7342 808.615C91.4292 808.557 93.1068 808.457 94.7671 808.316L91.4799 758.418L91.4947 758.032L91.4494 757.96L91.1368 753.245L114.987 715.238L91.0154 749.711L90.9676 750.712L88.4849 713.013L108.811 673.797L88.1391 706.387L85.0255 628.197L85.0144 627.937L85.0175 628.193L86.1949 689.871L65.1068 665.699L86.3563 695.182L87.3628 728.955L67.5339 696.8L87.5063 733.921L88.0654 752.7L59.3155 707.957L88.2643 759.251L89.5044 801.011Z" fill="#3F3D56"/>
</g>
<g id="SQUARE">
<path id="Vector_17" d="M1069 842H1028V883H1069V842Z" fill="#D0CDE1"/>
<path id="Vector_18" d="M1045 809V859H1095V809H1045ZM1092.82 856.823H1047.16V811.176H1092.82V856.823Z" fill="#3F3D56"/>
</g>
<g id="SQUARE_2">
<path id="Vector_17_2" d="M74 842H115V883H74V842Z" fill="#D0CDE1"/>
<path id="Vector_18_2" d="M98 809V859H48V809H98ZM50.1765 856.823H95.8383V811.176H50.1765V856.823Z" fill="#3F3D56"/>
</g>
<g id="HEAD">
<g id="HEAD_2">
<path d="M720.654 262.373C781.405 270.7 837.858 224.885 846.745 160.044C855.631 95.2029 813.586 35.8891 752.835 27.5631C692.083 19.237 635.631 65.0515 626.744 129.893C617.857 194.734 659.902 254.047 720.654 262.373Z" fill="#FFB6B6"/>
<path d="M794.439 152.54C789.764 138.778 772.271 143.393 771.971 143.405C766.105 143.632 766.796 157.157 733.828 138.177C719.861 130.137 700.925 124.182 670.849 98.7607C635.588 68.9566 628.681 142.27 626.744 129.893C554 98.7607 621.799 42.6815 646.083 31.1986C646.083 31.1986 665.5 17.5 680.766 12.2265L696.959 7.37104C707.186 2.71654 712.892 3.74043 722.627 2.24717C756.835 -3 760.454 3.76212 788.474 12.8198C804.59 18.0295 812.277 25.0526 835.112 44.4453C851.56 64.3631 863.735 89.8054 865.712 111.761C867.586 132.57 869.668 123.486 870.197 144.755C870.727 166.024 871.132 174.352 870.342 192.214C868.699 229.335 867.409 238.747 865.712 251.131C863.2 269.46 849.332 451.614 833.749 459.218C814.189 468.762 783.41 464.043 772.724 461.957C753.351 458.174 755.029 341.849 756.635 324.5C757.238 317.998 747.339 227.683 756.635 206.322C760.509 197.423 789.294 167.985 793.081 162.448" fill="url(#paint1_linear_0_1)"/>
</g>
<path id="GLASESS" d="M694.527 145.439C699.378 146.519 697.573 149.878 697.573 150.357C697.573 150.837 699.378 178.665 722.722 185.982C746.068 193.299 760.053 178.905 764.113 171.708C768.173 164.51 771.557 147.358 772.572 146.039C773.586 144.72 778.436 142.441 778.436 142.441L779 135.724L772.91 133.805C772.91 133.805 757.571 126.369 735.016 126.008C712.46 125.648 699.715 139.442 699.715 139.442C693.366 137.287 685.467 137.003 678.285 139.442C678.285 139.442 665.54 125.648 642.984 126.007C620.429 126.366 605.09 133.804 605.09 133.804L599 135.723L599.564 142.441C599.564 142.441 604.414 144.72 605.428 146.039C606.443 147.358 609.826 164.511 613.886 171.708C617.946 178.905 631.931 193.299 655.277 185.982C678.622 178.665 680.427 150.838 680.427 150.357C680.427 149.877 678.624 146.519 683.473 145.439C687.688 144.501 690.315 144.502 694.527 145.439ZM750.579 180.224C732.76 191.62 711.444 180.105 705.016 165.111C698.587 150.118 704.001 142.201 704.001 142.201C714.759 123.548 758.138 122.774 765.58 142.921C766.82 146.279 768.398 168.829 750.579 180.224ZM612.419 142.919C619.876 122.734 663.26 123.584 673.998 142.201C673.998 142.201 679.412 150.118 672.983 165.111C666.555 180.104 645.238 191.619 627.42 180.224C609.599 168.828 611.179 146.278 612.419 142.919Z" fill="#211615"/>
<path id="Vector 1" d="M706.5 124L716 128.655L748 145.964L758 148H769.567L772.881 145.964L778.5 142.4H784.478H790L776.746 122.036L740.5 116L706.5 124Z" fill="url(#paint2_linear_0_1)"/>
</g>
<defs>
<linearGradient id="paint0_linear_0_1" x1="716.609" y1="11" x2="716.609" y2="452.503" gradientUnits="userSpaceOnUse">
<stop stop-color="#897718"/>
<stop offset="0.0001" stop-color="#897718"/>
<stop offset="1" stop-color="#FFFB91"/>
</linearGradient>
<linearGradient id="paint1_linear_0_1" x1="761.808" y1="-7.54058" x2="698.815" y2="452.087" gradientUnits="userSpaceOnUse">
<stop stop-color="#897718"/>
<stop offset="0.0001" stop-color="#897718"/>
<stop offset="1" stop-color="#FFFB91"/>
</linearGradient>
<linearGradient id="paint2_linear_0_1" x1="748.25" y1="116" x2="748.25" y2="148" gradientUnits="userSpaceOnUse">
<stop stop-color="#A99A39"/>
<stop offset="1" stop-color="#AEA13E"/>
</linearGradient>
</defs>
</svg>
